<svg width="98" height="24" viewBox="0 0 98 24" fill="none" xmlns="http://www.w3.org/2000/svg">
  <g clip-path="url(#clip0_90_2670)">
    <path
      d="M28.9541 8.44336L27.9004 8.96875C27.5092 9.16449 27.1858 9.46952 26.9707 9.84473C26.7556 10.2201 26.6583 10.6499 26.6914 11.0791C26.7147 11.3837 26.7275 11.6918 26.7275 12C26.7268 14.2124 26.1012 16.3824 24.9209 18.2686C23.7406 20.1545 22.0511 21.6841 20.0391 22.6885C18.0269 23.6928 15.77 24.1331 13.5186 23.96C11.267 23.7868 9.10788 23.0068 7.28027 21.707L9.44336 20.627L9.56641 20.5635C11.0921 21.4014 12.8154 21.8343 14.5645 21.8184C16.3135 21.8024 18.0276 21.3382 19.5371 20.4727C21.0467 19.607 22.2994 18.3701 23.1699 16.8838C24.0405 15.3975 24.4989 13.7135 24.5 12C24.4998 11.5684 24.471 11.137 24.4141 10.709L7.56152 19.1211L4.0752 20.8613L0 22.8955V20.4463L4.10352 18.3975L6.09766 17.4004L28.9541 6V8.44336ZM84.4668 7.65723C88.0584 7.65725 89.5811 9.26393 89.5566 12.8291L89.5332 15.7188C89.5087 17.8352 89.6044 19.2558 89.8652 20.4473H87.6777C87.5853 19.877 87.5292 19.3017 87.5107 18.7246C86.7267 20.0313 85.418 20.751 83.1348 20.751C80.7329 20.7508 78.7356 19.4456 78.7354 17.1396C78.7354 14.1757 82.1599 13.2958 87.3916 12.7354V12.4326C87.3915 10.1265 86.1083 9.38094 84.4902 9.38086C82.6834 9.38086 81.66 10.314 81.5645 11.874H79.3291C79.519 9.17162 81.9935 7.65723 84.4668 7.65723ZM63.3818 7.70117C67.3051 7.70142 69.6125 10.8933 69.3506 14.877H59.5039C59.575 17.5792 61.5731 18.8837 63.4521 18.8838C65.3558 18.8838 66.4019 18.0453 66.9482 16.8105H69.1846C68.6137 18.9549 66.5685 20.749 63.4521 20.749C59.4087 20.7489 57.173 17.9063 57.1729 14.2021C57.1729 10.2217 59.8857 7.70117 63.3818 7.70117ZM42.957 3.24902C46.0684 3.24914 48.8072 4.62244 49.498 7.8623H47.1426C46.5718 5.9292 44.5763 5.253 42.8613 5.25293C41.5261 5.25293 39.1983 5.83511 39.1982 7.72266C39.1982 9.21419 40.3926 9.95817 42.0156 10.3086L44.0078 10.752C46.6488 11.3111 49.8113 12.29 49.8115 15.6904C49.8115 18.976 46.677 20.747 43.2471 20.7471C39.1801 20.7471 36.6112 18.5621 36.1592 15.2021H38.543C38.995 17.5313 40.6122 18.7432 43.2998 18.7432C45.8685 18.7431 47.3193 17.5804 47.3193 15.9004C47.3191 14.1067 45.7728 13.4085 43.6084 12.9189L41.458 12.4756C39.0793 11.9631 36.7248 10.6578 36.7246 7.8623C36.7246 4.6247 40.1738 3.24902 42.957 3.24902ZM97.3496 7.84082C97.5637 7.83784 97.7779 7.84513 97.9912 7.86328V10.1289C97.5903 10.0668 97.1851 10.0353 96.7793 10.0352C94.7814 10.0352 93.7813 11.0792 93.7812 13.875V20.4453H91.6162V7.91016H93.7344V10.0996C94.3763 8.6802 95.6605 7.91043 97.3496 7.84082ZM72.9707 20.4443H70.8057V3.54395H72.9707V20.4443ZM77.2988 3.54395V20.4443H75.1338V3.54395H77.2988ZM54.46 7.9082H56.8857V9.60938H54.46V17.042C54.46 18.3464 54.5547 18.6729 55.792 18.6729H56.8857V20.4434H55.3164C52.8664 20.4434 52.2949 19.9078 52.2949 17.2979V9.60938H50.2725V7.9082H52.2949V4.7627H54.46V7.9082ZM87.5586 14.4131C83.6337 14.7863 81.1367 15.3684 81.1367 17.0928C81.1369 18.2817 82.0646 19.0732 83.6104 19.0732C85.6328 19.0732 87.5586 18.164 87.5586 15.2061V14.4131ZM8.91211 1.30762C10.9244 0.302507 13.1817 -0.138581 15.4336 0.0341797C17.6855 0.206952 19.8448 0.986414 21.6729 2.28613L21.375 2.43457L19.3799 3.43066C17.8545 2.59616 16.1328 2.1669 14.3857 2.18457C12.6387 2.20231 10.9264 2.66693 9.41895 3.53223C7.91148 4.39758 6.66073 5.6337 5.79102 7.11816C4.92136 8.60253 4.46232 10.2837 4.45996 11.9951C4.46014 12.4241 4.48897 12.853 4.5459 13.2783L21.3809 4.87793L24.8672 3.13867L28.9541 1.0957V3.5459L24.832 5.60449L22.8379 6.59863L5.08984 15.457L4.10156 15.9502L3.09766 16.4521L0 17.999V15.5479L1.05273 15.0215C1.44416 14.826 1.76813 14.5217 1.9834 14.1465C2.19875 13.7711 2.29586 13.3415 2.2627 12.9121C2.23902 12.6089 2.22656 12.3046 2.22656 11.999C2.22633 9.78634 2.85142 7.61634 4.03125 5.72949C5.21099 3.84295 6.90014 2.31266 8.91211 1.30762ZM63.3818 9.51855C61.4782 9.51855 59.7184 10.5396 59.5273 13.0596H67.0674C66.9963 11.2897 65.6882 9.51879 63.3818 9.51855Z"
      fill="white" />
  </g>
  <defs>
    <clipPath id="clip0_90_2670">
      <rect width="98" height="24" fill="white" />
    </clipPath>
  </defs>
</svg>
